<svg xmlns="http://www.w3.org/2000/svg" width="54" height="54" viewBox="0 0 54 54"><g id="noun-audio-marketing-986276" transform="translate(-74.309 -4.309)"><path id="&#x41A;&#x43E;&#x43D;&#x442;&#x443;&#x440;_29139" data-name="&#x41A;&#x43E;&#x43D;&#x442;&#x443;&#x440; 29139" d="M220.089,155.423V148a.675.675,0,1,0-1.35,0v1.772l-21.6,6.834-4.64-3.038a.51.51,0,0,0-.675,0,.71.71,0,0,0-.337.591v12.15a.854.854,0,0,0,.337.591.922.922,0,0,0,.675,0l4.64-3.038,3.038.928a6.32,6.32,0,0,0-.844,2.7,5.587,5.587,0,0,0,5.4,5.822h.253a5.288,5.288,0,0,0,3.8-1.519,5.547,5.547,0,0,0,1.772-3.8l8.1,2.531v1.856a.675.675,0,1,0,1.35,0v-7.425a4.83,4.83,0,0,0,4.05-4.81,4.609,4.609,0,0,0-3.966-4.725ZM196.8,162.6l-3.881,2.531v-9.872l3.881,2.531a.558.558,0,0,0,.506.085l17.72-5.569V168.08l-17.719-5.569a.4.4,0,0,0-.507.085Zm12.572,5.231a4.166,4.166,0,0,1-1.434,3.038,4.632,4.632,0,0,1-3.122,1.181,4.362,4.362,0,0,1-4.219-4.556,4.031,4.031,0,0,1,.844-2.363l7.847,2.531c.084.085.084.085.084.169Zm6.919.675V151.88l2.531-.759v18.141Zm3.8-4.81v-7a3.594,3.594,0,0,1,0,7Z" transform="translate(-105.701 -129.009)" fill="#00adff"></path><path id="&#x41A;&#x43E;&#x43D;&#x442;&#x443;&#x440;_29140" data-name="&#x41A;&#x43E;&#x43D;&#x442;&#x443;&#x440; 29140" d="M343.97,4.309h1.266V9.624H343.97Z" transform="translate(-243.252)" fill="#00adff"></path><path id="&#x41A;&#x43E;&#x43D;&#x442;&#x443;&#x440;_29141" data-name="&#x41A;&#x43E;&#x43D;&#x442;&#x443;&#x440; 29141" d="M207.865,37.543l2.658,4.6-1.1.633-2.658-4.6Z" transform="translate(-119.487 -29.98)" fill="#00adff"></path><path id="&#x41A;&#x43E;&#x43D;&#x442;&#x443;&#x440;_29142" data-name="&#x41A;&#x43E;&#x43D;&#x442;&#x443;&#x440; 29142" d="M112.029,140.126l-4.6-2.658.633-1.1,4.6,2.658Z" transform="translate(-29.874 -119.13)" fill="#00adff"></path><path id="&#x41A;&#x43E;&#x43D;&#x442;&#x443;&#x440;_29143" data-name="&#x41A;&#x43E;&#x43D;&#x442;&#x443;&#x440; 29143" d="M74.309,273.97h5.316v1.266H74.309Z" transform="translate(0 -243.252)" fill="#00adff"></path><path id="&#x41A;&#x43E;&#x43D;&#x442;&#x443;&#x440;_29144" data-name="&#x41A;&#x43E;&#x43D;&#x442;&#x443;&#x440; 29144" d="M108.832,389.266l-.633-1.1,4.6-2.658.633,1.1Z" transform="translate(-30.571 -343.87)" fill="#00adff"></path><path id="&#x41A;&#x43E;&#x43D;&#x442;&#x443;&#x440;_29145" data-name="&#x41A;&#x43E;&#x43D;&#x442;&#x443;&#x440; 29145" d="M207.905,473.591l-1.1-.633,2.658-4.6,1.1.633Z" transform="translate(-119.524 -418.6)" fill="#00adff"></path><path id="&#x41A;&#x43E;&#x43D;&#x442;&#x443;&#x440;_29146" data-name="&#x41A;&#x43E;&#x43D;&#x442;&#x443;&#x440; 29146" d="M343.97,501.41h1.266v5.316H343.97Z" transform="translate(-243.252 -448.417)" fill="#00adff"></path><path id="&#x41A;&#x43E;&#x43D;&#x442;&#x443;&#x440;_29147" data-name="&#x41A;&#x43E;&#x43D;&#x442;&#x443;&#x440; 29147" d="M458.151,473.591l-2.658-4.6,1.1-.633,2.658,4.6Z" transform="translate(-343.852 -418.6)" fill="#00adff"></path><path id="&#x41A;&#x43E;&#x43D;&#x442;&#x443;&#x440;_29148" data-name="&#x41A;&#x43E;&#x43D;&#x442;&#x443;&#x440; 29148" d="M542.979,388.636l-4.6-2.658.633-1.1,4.6,2.658Z" transform="translate(-418.618 -343.302)" fill="#00adff"></path><path id="&#x41A;&#x43E;&#x43D;&#x442;&#x443;&#x440;_29149" data-name="&#x41A;&#x43E;&#x43D;&#x442;&#x443;&#x440; 29149" d="M571.41,273.97h5.316v1.266H571.41Z" transform="translate(-448.417 -243.252)" fill="#00adff"></path><path id="&#x41A;&#x43E;&#x43D;&#x442;&#x443;&#x440;_29150" data-name="&#x41A;&#x43E;&#x43D;&#x442;&#x443;&#x440; 29150" d="M543.569,136.77l.633,1.1-4.6,2.658-.633-1.1Z" transform="translate(-419.15 -119.489)" fill="#00adff"></path><path id="&#x41A;&#x43E;&#x43D;&#x442;&#x443;&#x440;_29151" data-name="&#x41A;&#x43E;&#x43D;&#x442;&#x443;&#x440; 29151" d="M457.743,38.336l1.1.633-2.658,4.6-1.1-.633Z" transform="translate(-343.484 -30.695)" fill="#00adff"></path></g></svg>