<svg xmlns="http://www.w3.org/2000/svg" width="64.305" height="65" viewBox="0 0 64.305 65"><g id="noun-clients-consulting-986324" transform="translate(-69.142 1.728)"><path id="&#x41A;&#x43E;&#x43D;&#x442;&#x443;&#x440;_29024" data-name="&#x41A;&#x43E;&#x43D;&#x442;&#x443;&#x440; 29024" d="M133.149,225.757l-.5-1.588c-.1-.2-.1-.4-.2-.5a7.7,7.7,0,0,0-1.588-2.382,6.524,6.524,0,0,0-1.687-1.191,8.353,8.353,0,0,0-2.679-.794,8.471,8.471,0,0,0-1.588,0c-.695,0-1.389.1-2.084.1a5.34,5.34,0,0,1,.1-3.969,6.9,6.9,0,0,0,4.664-.695l.3-.1.695-2.382v-.1c.1-.5,1.588-11.908-5.855-15.481a10.411,10.411,0,0,0-12.305,1.886c-5.756,5.855-2.58,15.382-2.481,15.778l.1.2.2.1a6.4,6.4,0,0,0,3.573.893h.993a6.172,6.172,0,0,1,0,3.87c-.695,0-1.29-.1-1.985-.1a7.735,7.735,0,0,0-6.649,2.58,13.864,13.864,0,0,1-6.252-6.153,12.737,12.737,0,0,0,2.58-4.366c1.191-.2,1.985-1.786,1.985-4.069,0-1.488-.4-3.076-1.29-3.771.1-1.092.3-2.183.3-3.374.3-5.359-1.191-6.054-3.87-6.947l-.6-.2a23.332,23.332,0,0,0-5.756-.893,18.962,18.962,0,0,0-5.756.893l-.6.2c-2.679.794-4.168,1.588-3.87,6.947.1,1.092.2,2.283.3,3.374-.893.695-1.29,2.283-1.29,3.771,0,2.183.794,3.87,1.985,4.069a12.733,12.733,0,0,0,2.58,4.366c-1.786,3.969-5.359,5.756-8.634,7.344a15.041,15.041,0,0,0-4.366,2.779c-2.481,2.679-2.481,5.954-2.481,8.137v.794H113.3v-.794a15.339,15.339,0,0,0-.6-4.962h19.848a.9.9,0,0,0,.695-.3.945.945,0,0,0,.2-.695ZM109.332,213.65c-.4-1.488-2.382-9.328,2.183-14.092a9.051,9.051,0,0,1,10.519-1.588c6.153,2.977,5.16,13.1,5.061,13.894l-.5,1.786a5.9,5.9,0,0,1-4.168.2,10.564,10.564,0,0,0,2.58-5.557l.1-.5-.4-.3c-3.374-2.084-4.069-7.244-4.069-7.344l-.3-1.886-1.092,1.588c-1.886,2.779-4.069,3.374-5.458,3.374a7.654,7.654,0,0,1-.993-.1,3.788,3.788,0,0,0-1.29-.4,1.715,1.715,0,0,0-1.687,1.488c-.2,2.779.4,3.87.893,4.267a12.732,12.732,0,0,0,2.679,5.359,5.739,5.739,0,0,1-4.069-.2Zm5.061,1.786h.2l-.1-.3a5.8,5.8,0,0,0,3.374,1.191,6.209,6.209,0,0,0,1.092-.1,8.3,8.3,0,0,0,2.283-1.191v.1c.1,0,.2.1.3.1a7.227,7.227,0,0,0,.2,5.359,15.069,15.069,0,0,1-1.687,2.481l-.4.5a2.323,2.323,0,0,1-1.786.794,2.486,2.486,0,0,1-1.786-.794,13.982,13.982,0,0,1-1.886-2.977,8.953,8.953,0,0,0,.2-5.16Zm4.168-.794a2.421,2.421,0,0,1-.695.1c-1.488,0-4.168-.893-5.756-6.748v-.3l-.3-.1s-.6-.5-.5-2.977a.194.194,0,0,1,.2-.2,1.422,1.422,0,0,1,.695.2l.1.1a6.086,6.086,0,0,0,1.488.2,7.444,7.444,0,0,0,5.657-2.779c.5,1.786,1.588,4.764,3.969,6.55-.2,1.092-1.29,4.764-4.863,5.955ZM85.417,194.794l.6-.2a18.487,18.487,0,0,1,10.718,0l.6.2c2.084.6,2.977.893,2.878,4.764-.2-.2-.3-.4-.5-.5a4.916,4.916,0,0,0-3.87-.993,15.791,15.791,0,0,0-4.168,1.389,9.947,9.947,0,0,1-6.252.1,3.28,3.28,0,0,0-2.878.5c-.1-4.367.795-4.565,2.878-5.26Zm-1.985,15.58-.3-.794-.794.3a3.472,3.472,0,0,1-.794-2.58c0-1.687.6-2.481.794-2.58l.5-.3.1-.6v-.4c0-.4-.1-.695-.1-1.092,0-.2.1-.4.1-.6a1.542,1.542,0,0,1,1.985-.893,11.883,11.883,0,0,0,7.344-.1,17.005,17.005,0,0,1,3.771-1.29,3.366,3.366,0,0,1,2.679.695,3.445,3.445,0,0,1,1.191,2.283c0,.4-.1.695-.1,1.092v.4l.1.794.5.1c.2,0,.794.893.794,2.58,0,1.588-.5,2.481-.794,2.58l-.794-.3-.2.794c-1.29,4.267-4.466,6.947-7.939,6.947-3.574-.1-6.75-2.878-8.04-7.046Zm2.58,6.45a8.5,8.5,0,0,0,10.916,0,13.888,13.888,0,0,0,3.275,4.168,30.676,30.676,0,0,1-5.16,6.55l.5.5-.5-.4a5.032,5.032,0,0,1-7.145,0,34.916,34.916,0,0,1-5.16-6.649,15.641,15.641,0,0,0,3.275-4.168ZM70.829,233.3a8.615,8.615,0,0,1,2.084-6.351,13.04,13.04,0,0,1,3.969-2.382,26.574,26.574,0,0,0,4.565-2.58,33.454,33.454,0,0,0,5.359,6.748,6.711,6.711,0,0,0,9.328,0l.1-.1a36.038,36.038,0,0,0,5.259-6.748,30.861,30.861,0,0,0,4.565,2.58,15.393,15.393,0,0,1,3.969,2.382,8.615,8.615,0,0,1,2.084,6.351H70.828Zm41.481-5.756a8.784,8.784,0,0,0-1.191-1.687,15.055,15.055,0,0,0-4.366-2.779c-.3-.2-.695-.3-.993-.5a6.048,6.048,0,0,1,5.16-1.786c.6,0,1.191.1,1.886.1a22.016,22.016,0,0,0,2.183,3.374,3.668,3.668,0,0,0,2.878,1.389,3.866,3.866,0,0,0,2.977-1.389l.4-.4a10.85,10.85,0,0,0,1.985-2.878c.695,0,1.29-.1,1.985-.1H126.6a7.049,7.049,0,0,1,2.183.6,5.955,5.955,0,0,1,1.29.893,5.634,5.634,0,0,1,1.191,1.786.6.6,0,0,1,.1.4l.5,1.488.3,1.488Z" transform="translate(0 -171.515)" fill="#f7fcfd"></path><path id="&#x41A;&#x43E;&#x43D;&#x442;&#x443;&#x440;_29025" data-name="&#x41A;&#x43E;&#x43D;&#x442;&#x443;&#x440; 29025" d="M270.93,12.86h.6v5.061l5.657-5.061h.695v1.191a2.774,2.774,0,0,0,2.779,2.779h12.206l4.863,4.366V16.83a2.774,2.774,0,0,0,2.779-2.779V4.425a2.774,2.774,0,0,0-2.779-2.779h-4.267v-.6a2.774,2.774,0,0,0-2.779-2.779H270.93a2.774,2.774,0,0,0-2.779,2.778v9.03a2.774,2.774,0,0,0,2.779,2.779Zm22.527-2.778V3.135h4.267a1.313,1.313,0,0,1,1.29,1.29V14.15a1.313,1.313,0,0,1-1.29,1.29h-1.488v2.481l-2.779-2.481h-12.8a1.313,1.313,0,0,1-1.29-1.29V12.959h11.313a2.859,2.859,0,0,0,2.779-2.878ZM269.64,1.051a1.313,1.313,0,0,1,1.29-1.29h19.749a1.313,1.313,0,0,1,1.29,1.29v9.03a1.313,1.313,0,0,1-1.29,1.29H276.587l-3.573,3.176V11.372H270.93a1.313,1.313,0,0,1-1.29-1.29Z" transform="translate(-176.086)" fill="#f7fcfd"></path><path id="&#x41A;&#x43E;&#x43D;&#x442;&#x443;&#x440;_29026" data-name="&#x41A;&#x43E;&#x43D;&#x442;&#x443;&#x440; 29026" d="M312.09,37.047h15.184v1.488H312.09Z" transform="translate(-214.964 -34.309)" fill="#f7fcfd"></path><path id="&#x41A;&#x43E;&#x43D;&#x442;&#x443;&#x440;_29027" data-name="&#x41A;&#x43E;&#x43D;&#x442;&#x443;&#x440; 29027" d="M334.49,72.371h10.122v1.488H334.49Z" transform="translate(-234.784 -65.564)" fill="#f7fcfd"></path></g></svg>