<svg xmlns="http://www.w3.org/2000/svg" width="65" height="63.414" viewBox="0 0 65 63.414"><g id="noun-email-marketing-986228" transform="translate(-67.427 -5.174)"><path id="&#x41A;&#x43E;&#x43D;&#x442;&#x443;&#x440;_29053" data-name="&#x41A;&#x43E;&#x43D;&#x442;&#x443;&#x440; 29053" d="M275.2,218.855l-10.206-8.918a.9.9,0,0,0-.991,0L253.8,218.855a.6.6,0,0,0-.3.594v13.179a.781.781,0,0,0,.792.792h20.412a.781.781,0,0,0,.792-.792V219.351a.544.544,0,0,0-.3-.5Zm-8.62,5.945h-4.161l-5.945-4.657h16.151Zm-11.593-3.865,5.945,4.657-5.945,5.351Zm7.432,5.351h4.161l6.242,5.549H256.176Zm5.549-.694,5.945-4.657v10.008Zm-3.468-14.07,8.224,7.134H256.275Z" transform="translate(-164.674 -181.082)" fill="#f7fcfd"></path><path id="&#x41A;&#x43E;&#x43D;&#x442;&#x443;&#x440;_29054" data-name="&#x41A;&#x43E;&#x43D;&#x442;&#x443;&#x440; 29054" d="M304.34,68.062h11.2v1.486h-11.2Z" transform="translate(-209.666 -55.655)" fill="#f7fcfd"></path><path id="&#x41A;&#x43E;&#x43D;&#x442;&#x443;&#x440;_29055" data-name="&#x41A;&#x43E;&#x43D;&#x442;&#x443;&#x440; 29055" d="M318.12,104.25h8.125v1.486H318.12Z" transform="translate(-221.861 -87.681)" fill="#f7fcfd"></path><path id="&#x41A;&#x43E;&#x43D;&#x442;&#x443;&#x440;_29056" data-name="&#x41A;&#x43E;&#x43D;&#x442;&#x443;&#x440; 29056" d="M126.523,419.955a1.223,1.223,0,0,1,.4.792H128.4a2.441,2.441,0,0,0-.892-1.883,3.064,3.064,0,0,0-1.288-.594v-1.288h-1.486v1.288a3.075,3.075,0,0,0-1.288.594,2.433,2.433,0,0,0,0,3.766,2.856,2.856,0,0,0,1.982.694,1.151,1.151,0,0,1,.991.4,1.223,1.223,0,0,1,.4.792,1.023,1.023,0,0,1-.4.792,1.641,1.641,0,0,1-2.081,0,1.223,1.223,0,0,1-.4-.792h-1.387a2.441,2.441,0,0,0,.892,1.883,3.065,3.065,0,0,0,1.288.594v1.288h1.486V426.99a3.075,3.075,0,0,0,1.288-.594,2.434,2.434,0,0,0,0-3.766,2.856,2.856,0,0,0-1.982-.694,1.151,1.151,0,0,1-.991-.4,1.223,1.223,0,0,1-.4-.792,1.023,1.023,0,0,1,.4-.792A1.506,1.506,0,0,1,126.523,419.955Z" transform="translate(-48.792 -364.447)" fill="#f7fcfd"></path><path id="&#x41A;&#x43E;&#x43D;&#x442;&#x443;&#x440;_29057" data-name="&#x41A;&#x43E;&#x43D;&#x442;&#x443;&#x440; 29057" d="M515.219,422c-.2-.694-.4-1.189-.5-1.486a7.456,7.456,0,0,0-1.486-1.585,4.4,4.4,0,0,0-1.982-.792,8.005,8.005,0,0,0-2.18,0,5.345,5.345,0,0,0-2.081.792,6.061,6.061,0,0,0-1.684,1.486,4.711,4.711,0,0,0-.892,1.883,7.421,7.421,0,0,0-.2,2.081,4.752,4.752,0,0,0,.694,1.982,7.455,7.455,0,0,0,1.486,1.585,4.4,4.4,0,0,0,1.982.792,6.032,6.032,0,0,0,2.18,0l-.3-1.486a4.257,4.257,0,0,1-1.585,0,3.48,3.48,0,0,1-1.387-.594,5.693,5.693,0,0,1-1.09-1.09,3.329,3.329,0,0,1-.5-1.387,3.769,3.769,0,0,1,.1-1.486,3.659,3.659,0,0,1,.694-1.387,3.451,3.451,0,0,1,1.288-1.09,4.373,4.373,0,0,1,1.585-.594,4.257,4.257,0,0,1,1.585,0,3.479,3.479,0,0,1,1.387.594,5.691,5.691,0,0,1,1.09,1.09,6.949,6.949,0,0,1,.4,1.09,2.108,2.108,0,0,1-.3,1.585,2.634,2.634,0,0,1-.594.5h-.5c-.2-.1-.3-.594-.3-.991a.364.364,0,0,1,.1-.3,10.12,10.12,0,0,0,.2-1.784l.1-.694-.694-.1a4.486,4.486,0,0,0-.991-.1,3.8,3.8,0,0,0-3.369,1.684,3.25,3.25,0,0,0-.5,2.477,2.188,2.188,0,0,0,1.09,1.387,2.888,2.888,0,0,0,.892.2,3.181,3.181,0,0,0,2.18-.991,1.2,1.2,0,0,0,.5.5,2.031,2.031,0,0,0,1.883,0,2.911,2.911,0,0,0,1.189-.991,3.819,3.819,0,0,0,.5-2.773Zm-4.756,1.784a2.132,2.132,0,0,1-1.486.991h-.2a.532.532,0,0,1-.3-.4,1.651,1.651,0,0,1,.3-1.288,2.464,2.464,0,0,1,2.081-.991c0,.3-.1.594-.1.991a1.73,1.73,0,0,0-.1.5C510.562,423.589,510.463,423.589,510.463,423.787Z" transform="translate(-386.559 -365.405)" fill="#f7fcfd"></path><path id="&#x41A;&#x43E;&#x43D;&#x442;&#x443;&#x440;_29058" data-name="&#x41A;&#x43E;&#x43D;&#x442;&#x443;&#x440; 29058" d="M126.282,49.465a28.038,28.038,0,0,0,1.387-8.62,27.713,27.713,0,0,0-17.735-25.762v-.2a9.71,9.71,0,1,0-19.42,0v.1A27.5,27.5,0,0,0,73.768,49.465,9.194,9.194,0,0,0,76.642,67.4a9.471,9.471,0,0,0,7.53-3.865,27.46,27.46,0,0,0,31.608.1,9.224,9.224,0,1,0,10.5-14.169ZM93.089,18.748a7.746,7.746,0,0,1-.991-3.865,8.224,8.224,0,1,1,8.224,8.224,8.667,8.667,0,0,1-3.666-.792l-.2-.1-4.558.991,1.387-4.063ZM76.641,65.813a7.728,7.728,0,1,1,7.728-7.728,7.738,7.738,0,0,1-7.728,7.728Zm23.384,1.09a25.525,25.525,0,0,1-15.06-4.855,9.063,9.063,0,0,0,.892-4.063,9.261,9.261,0,0,0-9.215-9.215,6.081,6.081,0,0,0-1.387.1,25.505,25.505,0,0,1-1.288-8.224A26.073,26.073,0,0,1,90.809,16.271a9.089,9.089,0,0,0,.892,2.775l-2.18,6.143L96.16,23.7a9.5,9.5,0,0,0,4.161.892,9.687,9.687,0,0,0,9.512-7.927,26.191,26.191,0,0,1,16.348,24.176,25.588,25.588,0,0,1-1.387,8.224,8.655,8.655,0,0,0-1.585-.2,9.261,9.261,0,0,0-9.215,9.215,9.107,9.107,0,0,0,.991,4.063A25.138,25.138,0,0,1,100.024,66.9Zm23.186-1.09a7.728,7.728,0,1,1,7.728-7.728A7.738,7.738,0,0,1,123.21,65.813Z" fill="#f7fcfd"></path></g></svg>