<svg xmlns="http://www.w3.org/2000/svg" width="54" height="53.965" viewBox="0 0 54 53.965"><g id="noun-market-analysis-986282" transform="translate(-67.406 2.304)"><path id="&#x41A;&#x43E;&#x43D;&#x442;&#x443;&#x440;_29134" data-name="&#x41A;&#x43E;&#x43D;&#x442;&#x443;&#x440; 29134" d="M80.1,31.04a14.445,14.445,0,0,1,4.946-9.067,14.98,14.98,0,0,1,4.616-2.638l.494-.165L87.6,6.887l-.659.165a26.605,26.605,0,0,0-9.974,5.358,27.02,27.02,0,0,0-9.48,18.546l-.083.659H79.935Zm-11.293-.66A25.477,25.477,0,0,1,77.793,13.4a26.261,26.261,0,0,1,8.9-4.946l2.061,9.974a17.17,17.17,0,0,0-4.451,2.638A15.479,15.479,0,0,0,79.03,30.38Z" transform="translate(0 -8.312)" fill="#00adff"></path><path id="&#x41A;&#x43E;&#x43D;&#x442;&#x443;&#x440;_29135" data-name="&#x41A;&#x43E;&#x43D;&#x442;&#x443;&#x440; 29135" d="M96.22,307.669h-.989A14.454,14.454,0,0,1,80.887,295.14l-.083-.495H68.276l.083.659a26.119,26.119,0,0,0,6.265,15.415A26.956,26.956,0,0,0,95.23,320.2a22.489,22.489,0,0,0,3.38-.247l.659-.083L96.8,307.67Zm-.989,1.236h.577l.494,2.308-5.523,7.336a23.318,23.318,0,0,1-4.122-1.072l6.512-8.655a16.594,16.594,0,0,0,2.061.082Zm-9.809,8.161a20.552,20.552,0,0,1-3.545-1.813l6.017-8.161a15.527,15.527,0,0,0,3.874,1.4Zm1.4-10.551-6.018,8.078a22.209,22.209,0,0,1-3.05-2.473l6.017-8.161A12.568,12.568,0,0,0,86.823,306.515Zm-6.512-8.408-6.759,9.067a21.753,21.753,0,0,1-2.061-3.874l5.523-7.419h2.72a11.048,11.048,0,0,0,.577,2.226Zm-4.864-2.226L71,301.9a29.852,29.852,0,0,1-1.4-6.1Zm.165,14.013c-.494-.577-.907-1.154-1.319-1.731l6.512-8.737a14.783,14.783,0,0,0,2.226,3.627l-6.1,8.243a10.614,10.614,0,0,1-1.319-1.4Zm19.619,9.067c-1.072,0-2.061-.083-3.05-.165l4.451-5.935,1.236,6.017c-.907.083-1.813.083-2.638.083Z" transform="translate(-0.786 -268.538)" fill="#00adff"></path><path id="&#x41A;&#x43E;&#x43D;&#x442;&#x443;&#x440;_29136" data-name="&#x41A;&#x43E;&#x43D;&#x442;&#x443;&#x440; 29136" d="M310.053,10.281a14.666,14.666,0,0,1,7.254,1.4l.494.247,6.842-10.551-.577-.33A27.182,27.182,0,0,0,307.58-2.084L306.92-2l2.555,12.282ZM322.83,1.79l-5.523,8.49a16.407,16.407,0,0,0-6.265-1.319h-.577L308.4-.93A26.356,26.356,0,0,1,322.83,1.79Z" transform="translate(-216.598)" fill="#00adff"></path><path id="&#x41A;&#x43E;&#x43D;&#x442;&#x443;&#x440;_29137" data-name="&#x41A;&#x43E;&#x43D;&#x442;&#x443;&#x440; 29137" d="M411.119,56.06A31.187,31.187,0,0,0,407,52.1l-.577-.412L399.5,62.16l.412.33a15.537,15.537,0,0,1,1.649,1.649,14.5,14.5,0,0,1-1.649,20.443,14.98,14.98,0,0,1-4.616,2.638l-.494.165,2.555,12.282.659-.165a26.925,26.925,0,0,0,19.372-23.74,27.051,27.051,0,0,0-6.265-19.7ZM416.148,75.6a25.921,25.921,0,0,1-8.985,17.558,26.261,26.261,0,0,1-8.9,4.946L396.2,88.125a17.17,17.17,0,0,0,4.451-2.638,15.774,15.774,0,0,0,1.813-22.174c-.412-.494-.824-.907-1.319-1.4l5.523-8.49a26.765,26.765,0,0,1,3.462,3.38A25.634,25.634,0,0,1,416.148,75.6Z" transform="translate(-296.068 -48.83)" fill="#00adff"></path><path id="&#x41A;&#x43E;&#x43D;&#x442;&#x443;&#x440;_29138" data-name="&#x41A;&#x43E;&#x43D;&#x442;&#x443;&#x440; 29138" d="M244.523,193.85v13.6h-1.236V196.735h-4.122v10.716h-1.236v-7.913h-4.122v7.913H232.57v-5.358h-4.122v5.358H226.8v1.236h23.411v-1.236h-1.649v-13.6Zm-14.838,13.6v-4.122h1.649v4.122Zm5.358,0v-6.677h1.649v6.677Zm5.358,0v-9.48h1.649v9.48Zm5.358,0V195.086h1.649v12.365Z" transform="translate(-144.143 -177.387)" fill="#00adff"></path></g></svg>