<svg xmlns="http://www.w3.org/2000/svg" width="72.761" height="72.761" viewBox="0 0 72.761 72.761"><g id="noun-shape-750050" transform="translate(-115.18 -43.34)"><path id="&#x41A;&#x43E;&#x43D;&#x442;&#x443;&#x440;_28960" data-name="&#x41A;&#x43E;&#x43D;&#x442;&#x443;&#x440; 28960" d="M268.454,83.838,257.66,56.66l-2.539,1.008,10.988,27.665,2.346,2.346Z" transform="translate(-118.26 -11.256)" fill="#f7fcfd"></path><path id="&#x41A;&#x43E;&#x43D;&#x442;&#x443;&#x440;_28961" data-name="&#x41A;&#x43E;&#x43D;&#x442;&#x443;&#x440; 28961" d="M358.82,303.287l10.792,27.172,2.539-1.009-10.987-27.663-2.345-2.343Z" transform="translate(-205.892 -216.424)" fill="#f7fcfd"></path><path id="&#x41A;&#x43E;&#x43D;&#x442;&#x443;&#x440;_28962" data-name="&#x41A;&#x43E;&#x43D;&#x442;&#x443;&#x440; 28962" d="M155.688,286.96l-27.178,10.8,1.009,2.539,27.663-10.987,2.346-2.348Z" transform="translate(-11.265 -205.875)" fill="#f7fcfd"></path><path id="&#x41A;&#x43E;&#x43D;&#x442;&#x443;&#x440;_28963" data-name="&#x41A;&#x43E;&#x43D;&#x442;&#x443;&#x440; 28963" d="M375.14,196.614l27.175-10.793-1.009-2.54-27.663,10.988-2.345,2.346Z" transform="translate(-216.436 -118.259)" fill="#f7fcfd"></path><path id="&#x41A;&#x43E;&#x43D;&#x442;&#x443;&#x440;_28964" data-name="&#x41A;&#x43E;&#x43D;&#x442;&#x443;&#x440; 28964" d="M158.841,188.618l-26.85-11.584-1.082,2.507,27.332,11.793h3.317Z" transform="translate(-13.292 -112.98)" fill="#f7fcfd"></path><path id="&#x41A;&#x43E;&#x43D;&#x442;&#x443;&#x440;_28965" data-name="&#x41A;&#x43E;&#x43D;&#x442;&#x443;&#x440; 28965" d="M374,289.683l26.848,11.584,1.083-2.509L374.6,286.966h-3.317Z" transform="translate(-216.424 -205.88)" fill="#f7fcfd"></path><path id="&#x41A;&#x43E;&#x43D;&#x442;&#x443;&#x440;_28966" data-name="&#x41A;&#x43E;&#x43D;&#x442;&#x443;&#x440; 28966" d="M361.545,86.976l11.584-26.848-2.51-1.082L358.829,86.377v3.316Z" transform="translate(-205.9 -13.272)" fill="#f7fcfd"></path><path id="&#x41A;&#x43E;&#x43D;&#x442;&#x443;&#x440;_28967" data-name="&#x41A;&#x43E;&#x43D;&#x442;&#x443;&#x440; 28967" d="M260.474,302.163l-11.582,26.848,2.508,1.083,11.791-27.332v-3.316Z" transform="translate(-112.996 -216.427)" fill="#f7fcfd"></path><path id="&#x41A;&#x43E;&#x43D;&#x442;&#x443;&#x440;_28968" data-name="&#x41A;&#x43E;&#x43D;&#x442;&#x443;&#x440; 28968" d="M367.281,297.767l21.048,21.049,1.932-1.932-20.676-20.676-3.528-1.522Z" transform="translate(-212.007 -212.405)" fill="#f7fcfd"></path><path id="&#x41A;&#x43E;&#x43D;&#x442;&#x443;&#x440;_28969" data-name="&#x41A;&#x43E;&#x43D;&#x442;&#x443;&#x440; 28969" d="M200.7,126.919,179.65,105.87l-1.931,1.932L198.4,128.479,201.922,130Z" transform="translate(-52.85 -52.842)" fill="#f7fcfd"></path><path id="&#x41A;&#x43E;&#x43D;&#x442;&#x443;&#x440;_28970" data-name="&#x41A;&#x43E;&#x43D;&#x442;&#x443;&#x440; 28970" d="M335.063,262.1l-1.121-.484.476,1.2h.646Z" transform="translate(-184.868 -184.46)" fill="#f7fcfd"></path><path id="&#x41A;&#x43E;&#x43D;&#x442;&#x443;&#x440;_28971" data-name="&#x41A;&#x43E;&#x43D;&#x442;&#x443;&#x440; 28971" d="M358.82,287.668l1.119.484-.474-1.2h-.645Z" transform="translate(-205.892 -205.872)" fill="#f7fcfd"></path><path id="&#x41A;&#x43E;&#x43D;&#x442;&#x443;&#x440;_28972" data-name="&#x41A;&#x43E;&#x43D;&#x442;&#x443;&#x440; 28972" d="M369.61,128.861l21.048-21.048-1.932-1.932-20.677,20.676-1.522,3.528Z" transform="translate(-212.405 -52.851)" fill="#f7fcfd"></path><path id="&#x41A;&#x43E;&#x43D;&#x442;&#x443;&#x440;_28973" data-name="&#x41A;&#x43E;&#x43D;&#x442;&#x443;&#x440; 28973" d="M198.768,295.431,177.72,316.478l1.932,1.932,20.676-20.676,1.522-3.528Z" transform="translate(-52.851 -211.999)" fill="#f7fcfd"></path><path id="&#x41A;&#x43E;&#x43D;&#x442;&#x443;&#x440;_28974" data-name="&#x41A;&#x43E;&#x43D;&#x442;&#x443;&#x440; 28974" d="M359.535,263.223l.484-1.121-1.194.474v.647Z" transform="translate(-205.896 -184.868)" fill="#f7fcfd"></path><path id="&#x41A;&#x43E;&#x43D;&#x442;&#x443;&#x440;_28975" data-name="&#x41A;&#x43E;&#x43D;&#x442;&#x443;&#x440; 28975" d="M333.959,286.96l-.484,1.123,1.195-.474v-.648Z" transform="translate(-184.474 -205.875)" fill="#f7fcfd"></path><path id="&#x41A;&#x43E;&#x43D;&#x442;&#x443;&#x440;_28976" data-name="&#x41A;&#x43E;&#x43D;&#x442;&#x443;&#x440; 28976" d="M405.854,269.34H376.617l-3.572,1.418,3.044,1.314h29.766Z" transform="translate(-217.913 -190.985)" fill="#f7fcfd"></path><path id="&#x41A;&#x43E;&#x43D;&#x442;&#x443;&#x440;_28977" data-name="&#x41A;&#x43E;&#x43D;&#x442;&#x443;&#x440; 28977" d="M144.947,269.34H115.18v2.731h29.244l3.569-1.417Z" transform="translate(0 -190.985)" fill="#f7fcfd"></path><path id="&#x41A;&#x43E;&#x43D;&#x442;&#x443;&#x440;_28978" data-name="&#x41A;&#x43E;&#x43D;&#x442;&#x443;&#x440; 28978" d="M328.1,274.91l-1.135.45,1.18.509.458-.457Z" transform="translate(-178.973 -195.692)" fill="#f7fcfd"></path><path id="&#x41A;&#x43E;&#x43D;&#x442;&#x443;&#x440;_28979" data-name="&#x41A;&#x43E;&#x43D;&#x442;&#x443;&#x440; 28979" d="M362.48,275.661l.5.5,1.135-.451-1.181-.509Z" transform="translate(-208.985 -195.94)" fill="#f7fcfd"></path><path id="&#x41A;&#x43E;&#x43D;&#x442;&#x443;&#x440;_28980" data-name="&#x41A;&#x43E;&#x43D;&#x442;&#x443;&#x440; 28980" d="M330.005,269.34h-1.286l.864.864.66-.263Z" transform="translate(-180.455 -190.985)" fill="#f7fcfd"></path><path id="&#x41A;&#x43E;&#x43D;&#x442;&#x443;&#x440;_28981" data-name="&#x41A;&#x43E;&#x43D;&#x442;&#x443;&#x440; 28981" d="M361.683,282.259h1.286l-.862-.863-.661.263Z" transform="translate(-208.11 -201.175)" fill="#f7fcfd"></path><path id="&#x41A;&#x43E;&#x43D;&#x442;&#x443;&#x440;_28982" data-name="&#x41A;&#x43E;&#x43D;&#x442;&#x443;&#x440; 28982" d="M338.955,272.17l-.408.162.172.435.235-.235Z" transform="translate(-188.76 -193.377)" fill="#f7fcfd"></path><path id="&#x41A;&#x43E;&#x43D;&#x442;&#x443;&#x440;_28983" data-name="&#x41A;&#x43E;&#x43D;&#x442;&#x443;&#x440; 28983" d="M358.82,280.885l.407-.162-.173-.435-.234.234Z" transform="translate(-205.892 -200.237)" fill="#f7fcfd"></path><path id="&#x41A;&#x43E;&#x43D;&#x442;&#x443;&#x440;_28984" data-name="&#x41A;&#x43E;&#x43D;&#x442;&#x443;&#x440; 28984" d="M329.625,281.1l-.908.908h1.221l.281-.651Z" transform="translate(-180.453 -200.923)" fill="#f7fcfd"></path><path id="&#x41A;&#x43E;&#x43D;&#x442;&#x443;&#x440;_28985" data-name="&#x41A;&#x43E;&#x43D;&#x442;&#x443;&#x440; 28985" d="M362.192,270.242l.909-.909h-1.221l-.281.652Z" transform="translate(-208.24 -190.979)" fill="#f7fcfd"></path><path id="&#x41A;&#x43E;&#x43D;&#x442;&#x443;&#x440;_28986" data-name="&#x41A;&#x43E;&#x43D;&#x442;&#x443;&#x440; 28986" d="M338.593,280.16l-.174.4.429.185v-.332Z" transform="translate(-188.652 -200.129)" fill="#f7fcfd"></path><path id="&#x41A;&#x43E;&#x43D;&#x442;&#x443;&#x440;_28987" data-name="&#x41A;&#x43E;&#x43D;&#x442;&#x443;&#x440; 28987" d="M359.077,272.945l.174-.4-.429-.185v.333Z" transform="translate(-205.893 -193.533)" fill="#f7fcfd"></path><path id="&#x41A;&#x43E;&#x43D;&#x442;&#x443;&#x440;_28988" data-name="&#x41A;&#x43E;&#x43D;&#x442;&#x443;&#x440; 28988" d="M359.54,276.488l.123.309.332-.33-.31-.31Z" transform="translate(-206.501 -196.745)" fill="#f7fcfd"></path><path id="&#x41A;&#x43E;&#x43D;&#x442;&#x443;&#x440;_28989" data-name="&#x41A;&#x43E;&#x43D;&#x442;&#x443;&#x440; 28989" d="M337.861,276.02l-.33.33.31.311.143-.332Z" transform="translate(-187.902 -196.63)" fill="#f7fcfd"></path><path id="&#x41A;&#x43E;&#x43D;&#x442;&#x443;&#x440;_28990" data-name="&#x41A;&#x43E;&#x43D;&#x442;&#x443;&#x440; 28990" d="M358.82,277.029l.111-.26-.111-.281Z" transform="translate(-205.892 -197.025)" fill="#f7fcfd"></path><path id="&#x41A;&#x43E;&#x43D;&#x442;&#x443;&#x440;_28991" data-name="&#x41A;&#x43E;&#x43D;&#x442;&#x443;&#x440; 28991" d="M340.46,276.594l.112.284v-.546Z" transform="translate(-190.377 -196.894)" fill="#f7fcfd"></path><path id="&#x41A;&#x43E;&#x43D;&#x442;&#x443;&#x440;_28992" data-name="&#x41A;&#x43E;&#x43D;&#x442;&#x443;&#x440; 28992" d="M343.912,73.106V43.34h-2.733V72.584l1.418,3.57Z" transform="translate(-190.984)" fill="#f7fcfd"></path><path id="&#x41A;&#x43E;&#x43D;&#x442;&#x443;&#x440;_28993" data-name="&#x41A;&#x43E;&#x43D;&#x442;&#x443;&#x440; 28993" d="M341.18,304.249v29.766h2.733V304.777l-1.419-3.572Z" transform="translate(-190.985 -217.913)" fill="#f7fcfd"></path><path id="&#x41A;&#x43E;&#x43D;&#x442;&#x443;&#x440;_28994" data-name="&#x41A;&#x43E;&#x43D;&#x442;&#x443;&#x440; 28994" d="M348.008,256.251l-.45-1.135-.509,1.18.457.457Z" transform="translate(-195.945 -178.965)" fill="#f7fcfd"></path><path id="&#x41A;&#x43E;&#x43D;&#x442;&#x443;&#x440;_28995" data-name="&#x41A;&#x43E;&#x43D;&#x442;&#x443;&#x440; 28995" d="M346.76,291.124l.45,1.135.51-1.181-.457-.458Z" transform="translate(-195.701 -208.968)" fill="#f7fcfd"></path><path id="&#x41A;&#x43E;&#x43D;&#x442;&#x443;&#x440;_28996" data-name="&#x41A;&#x43E;&#x43D;&#x442;&#x443;&#x440; 28996" d="M342.092,257.772l-.909-.909v1.22l.654.283Z" transform="translate(-190.987 -180.441)" fill="#f7fcfd"></path><path id="&#x41A;&#x43E;&#x43D;&#x442;&#x443;&#x440;_28997" data-name="&#x41A;&#x43E;&#x43D;&#x442;&#x443;&#x440; 28997" d="M352.96,290.335l.909.909v-1.223l-.653-.281Z" transform="translate(-200.94 -208.225)" fill="#f7fcfd"></path><path id="&#x41A;&#x43E;&#x43D;&#x442;&#x443;&#x440;_28998" data-name="&#x41A;&#x43E;&#x43D;&#x442;&#x443;&#x440; 28998" d="M352.01,287.214l.4.172.185-.43h-.332Z" transform="translate(-200.137 -205.872)" fill="#f7fcfd"></path><path id="&#x41A;&#x43E;&#x43D;&#x442;&#x443;&#x440;_28999" data-name="&#x41A;&#x43E;&#x43D;&#x442;&#x443;&#x440; 28999" d="M344.791,266.743l-.4-.174L344.2,267h.333Z" transform="translate(-193.54 -188.643)" fill="#f7fcfd"></path><path id="&#x41A;&#x43E;&#x43D;&#x442;&#x443;&#x440;_29000" data-name="&#x41A;&#x43E;&#x43D;&#x442;&#x443;&#x440; 29000" d="M341.18,289.839v1.286l.864-.864-.262-.661Z" transform="translate(-190.985 -208.107)" fill="#f7fcfd"></path><path id="&#x41A;&#x43E;&#x43D;&#x442;&#x443;&#x440;_29001" data-name="&#x41A;&#x43E;&#x43D;&#x442;&#x443;&#x440; 29001" d="M354.1,258.145v-1.286l-.865.865.263.66Z" transform="translate(-201.175 -180.438)" fill="#f7fcfd"></path><path id="&#x41A;&#x43E;&#x43D;&#x442;&#x443;&#x440;_29002" data-name="&#x41A;&#x43E;&#x43D;&#x442;&#x443;&#x440; 29002" d="M344.02,286.96l.163.41.435-.173-.236-.237Z" transform="translate(-193.385 -205.875)" fill="#f7fcfd"></path><path id="&#x41A;&#x43E;&#x43D;&#x442;&#x443;&#x440;_29003" data-name="&#x41A;&#x43E;&#x43D;&#x442;&#x443;&#x440; 29003" d="M352.725,267.115l-.162-.408-.435.172.235.235Z" transform="translate(-200.237 -188.76)" fill="#f7fcfd"></path><path id="&#x41A;&#x43E;&#x43D;&#x442;&#x443;&#x440;_29004" data-name="&#x41A;&#x43E;&#x43D;&#x442;&#x443;&#x440; 29004" d="M347.87,287.82l.331.33.31-.309-.332-.144Z" transform="translate(-196.639 -206.498)" fill="#f7fcfd"></path><path id="&#x41A;&#x43E;&#x43D;&#x442;&#x443;&#x440;_29005" data-name="&#x41A;&#x43E;&#x43D;&#x442;&#x443;&#x440; 29005" d="M348.641,266.018l-.33-.33L348,266l.332.142Z" transform="translate(-196.749 -187.898)" fill="#f7fcfd"></path><path id="&#x41A;&#x43E;&#x43D;&#x442;&#x443;&#x440;_29006" data-name="&#x41A;&#x43E;&#x43D;&#x442;&#x443;&#x440; 29006" d="M348.437,287.079l.284-.114h-.547Z" transform="translate(-196.896 -205.88)" fill="#f7fcfd"></path><path id="&#x41A;&#x43E;&#x43D;&#x442;&#x443;&#x440;_29007" data-name="&#x41A;&#x43E;&#x43D;&#x442;&#x443;&#x440; 29007" d="M348.592,268.61l-.284.113h.544Z" transform="translate(-197.009 -190.368)" fill="#f7fcfd"></path><path id="&#x41A;&#x43E;&#x43D;&#x442;&#x443;&#x440;_29008" data-name="&#x41A;&#x43E;&#x43D;&#x442;&#x443;&#x440; 29008" d="M341.655,269.34h-.468v.439l.336-.133Z" transform="translate(-190.991 -190.985)" fill="#f7fcfd"></path><path id="&#x41A;&#x43E;&#x43D;&#x442;&#x443;&#x440;_29009" data-name="&#x41A;&#x43E;&#x43D;&#x442;&#x443;&#x440; 29009" d="M355.8,284.58h.468v-.436l-.336.133Z" transform="translate(-203.34 -203.495)" fill="#f7fcfd"></path><path id="&#x41A;&#x43E;&#x43D;&#x442;&#x443;&#x440;_29010" data-name="&#x41A;&#x43E;&#x43D;&#x442;&#x443;&#x440; 29010" d="M355.214,283.475l.12-.28-.384.384Z" transform="translate(-202.622 -202.694)" fill="#f7fcfd"></path><path id="&#x41A;&#x43E;&#x43D;&#x442;&#x443;&#x440;_29011" data-name="&#x41A;&#x43E;&#x43D;&#x442;&#x443;&#x440; 29011" d="M342.7,270.736l-.12.28.384-.385Z" transform="translate(-192.17 -192.075)" fill="#f7fcfd"></path><path id="&#x41A;&#x43E;&#x43D;&#x442;&#x443;&#x440;_29012" data-name="&#x41A;&#x43E;&#x43D;&#x442;&#x443;&#x440; 29012" d="M341.18,283.95v.467h.439l-.134-.335Z" transform="translate(-190.985 -203.332)" fill="#f7fcfd"></path><path id="&#x41A;&#x43E;&#x43D;&#x442;&#x443;&#x440;_29013" data-name="&#x41A;&#x43E;&#x43D;&#x442;&#x443;&#x440; 29013" d="M356.42,269.8v-.467h-.44l.133.335Z" transform="translate(-203.492 -190.98)" fill="#f7fcfd"></path><path id="&#x41A;&#x43E;&#x43D;&#x442;&#x443;&#x440;_29014" data-name="&#x41A;&#x43E;&#x43D;&#x442;&#x443;&#x440; 29014" d="M342.582,283.361l.281.12-.385-.384Z" transform="translate(-192.082 -202.611)" fill="#f7fcfd"></path><path id="&#x41A;&#x43E;&#x43D;&#x442;&#x443;&#x440;_29015" data-name="&#x41A;&#x43E;&#x43D;&#x442;&#x443;&#x440; 29015" d="M355.315,270.843l-.28-.12.385.385Z" transform="translate(-202.694 -192.154)" fill="#f7fcfd"></path><path id="&#x41A;&#x43E;&#x43D;&#x442;&#x443;&#x440;_29016" data-name="&#x41A;&#x43E;&#x43D;&#x442;&#x443;&#x440; 29016" d="M357.642,280.255v-.283l-.216.5Z" transform="translate(-204.714 -199.97)" fill="#f7fcfd"></path><path id="&#x41A;&#x43E;&#x43D;&#x442;&#x443;&#x440;_29017" data-name="&#x41A;&#x43E;&#x43D;&#x442;&#x443;&#x440; 29017" d="M341.18,273.328v.283l.216-.5Z" transform="translate(-190.985 -194.174)" fill="#f7fcfd"></path><path id="&#x41A;&#x43E;&#x43D;&#x442;&#x443;&#x440;_29018" data-name="&#x41A;&#x43E;&#x43D;&#x442;&#x443;&#x440; 29018" d="M352.105,269.34h-.283l.5.215Z" transform="translate(-199.978 -190.985)" fill="#f7fcfd"></path><path id="&#x41A;&#x43E;&#x43D;&#x442;&#x443;&#x440;_29019" data-name="&#x41A;&#x43E;&#x43D;&#x442;&#x443;&#x440; 29019" d="M345.178,285.788h.283l-.5-.215Z" transform="translate(-194.182 -204.703)" fill="#f7fcfd"></path><path id="&#x41A;&#x43E;&#x43D;&#x442;&#x443;&#x440;_29020" data-name="&#x41A;&#x43E;&#x43D;&#x442;&#x443;&#x440; 29020" d="M352,285.877l.2-.2-.5.2Z" transform="translate(-199.874 -204.792)" fill="#f7fcfd"></path><path id="&#x41A;&#x43E;&#x43D;&#x442;&#x443;&#x440;_29021" data-name="&#x41A;&#x43E;&#x43D;&#x442;&#x443;&#x440; 29021" d="M345.261,269.34l-.2.2.5-.2Z" transform="translate(-194.263 -190.985)" fill="#f7fcfd"></path><path id="&#x41A;&#x43E;&#x43D;&#x442;&#x443;&#x440;_29022" data-name="&#x41A;&#x43E;&#x43D;&#x442;&#x443;&#x440; 29022" d="M341.18,280.15l.2.2-.2-.5Z" transform="translate(-190.985 -199.864)" fill="#f7fcfd"></path><path id="&#x41A;&#x43E;&#x43D;&#x442;&#x443;&#x440;_29023" data-name="&#x41A;&#x43E;&#x43D;&#x442;&#x443;&#x440; 29023" d="M357.721,273.4l-.2-.2.2.508Z" transform="translate(-204.793 -194.25)" fill="#f7fcfd"></path></g></svg>