<svg xmlns="http://www.w3.org/2000/svg" width="65" height="63.273" viewBox="0 0 65 63.273"><g id="noun-strategic-of-victory-986291" transform="translate(-74.308 -11.199)"><path id="&#x41A;&#x43E;&#x43D;&#x442;&#x443;&#x440;_29125" data-name="&#x41A;&#x43E;&#x43D;&#x442;&#x443;&#x440; 29125" d="M371.141,424.74l-1.32.711A35.642,35.642,0,0,0,381.7,438.146l.812-1.32a33.347,33.347,0,0,1-11.375-12.085Z" transform="translate(-260.677 -364.791)" fill="#f7fcfd"></path><path id="&#x41A;&#x43E;&#x43D;&#x442;&#x443;&#x440;_29126" data-name="&#x41A;&#x43E;&#x43D;&#x442;&#x443;&#x440; 29126" d="M360.141,236.06h-1.523c0,27.117,16.961,36.766,31.484,36.766V271.3c-13.812,0-29.961-9.242-29.961-35.241Z" transform="translate(-250.794 -198.354)" fill="#f7fcfd"></path><path id="&#x41A;&#x43E;&#x43D;&#x442;&#x443;&#x440;_29127" data-name="&#x41A;&#x43E;&#x43D;&#x442;&#x443;&#x440; 29127" d="M393.741,236.058h-1.523c0,24.274,14.829,32.8,27.524,32.8V267.34c-11.984,0-26-8.227-26-31.282Z" transform="translate(-280.434 -198.352)" fill="#f7fcfd"></path><path id="&#x41A;&#x43E;&#x43D;&#x442;&#x443;&#x440;_29128" data-name="&#x41A;&#x43E;&#x43D;&#x442;&#x443;&#x440; 29128" d="M427.341,236.058h-1.523C425.818,257.386,438,265,449.381,265V263.48c-5.18-.1-22.038-2.032-22.038-27.422Z" transform="translate(-310.073 -198.352)" fill="#f7fcfd"></path><path id="&#x41A;&#x43E;&#x43D;&#x442;&#x443;&#x440;_29129" data-name="&#x41A;&#x43E;&#x43D;&#x442;&#x443;&#x440; 29129" d="M222.49,436.824l.812,1.32a33.261,33.261,0,0,0,11.883-12.695l-1.32-.711a33.34,33.34,0,0,1-11.375,12.085Z" transform="translate(-130.713 -364.789)" fill="#f7fcfd"></path><path id="&#x41A;&#x43E;&#x43D;&#x442;&#x443;&#x440;_29130" data-name="&#x41A;&#x43E;&#x43D;&#x442;&#x443;&#x440; 29130" d="M74.309,271.3v1.523c14.523,0,31.484-9.649,31.484-36.766H104.27c0,26-16.148,35.241-29.96,35.241Z" transform="translate(-0.001 -198.355)" fill="#f7fcfd"></path><path id="&#x41A;&#x43E;&#x43D;&#x442;&#x443;&#x440;_29131" data-name="&#x41A;&#x43E;&#x43D;&#x442;&#x443;&#x440; 29131" d="M101.841,236.06h-1.523c0,23.156-14.015,31.282-26,31.282v1.523c12.695,0,27.524-8.531,27.524-32.8Z" transform="translate(-0.009 -198.354)" fill="#f7fcfd"></path><path id="&#x41A;&#x43E;&#x43D;&#x442;&#x443;&#x440;_29132" data-name="&#x41A;&#x43E;&#x43D;&#x442;&#x443;&#x440; 29132" d="M97.87,236.06H96.346c0,25.39-16.86,27.422-22.038,27.422v1.523c11.375-.1,23.563-7.617,23.563-28.945Z" transform="translate(0 -198.354)" fill="#f7fcfd"></path><path id="&#x41A;&#x43E;&#x43D;&#x442;&#x443;&#x440;_29133" data-name="&#x41A;&#x43E;&#x43D;&#x442;&#x443;&#x440; 29133" d="M260.579,26.23l6.5-5.992-8.734-1.016L254.688,11.2l-3.656,8.023L242.3,20.238l6.5,5.992-1.726,8.633,7.617-4.367,7.617,4.367Zm-5.891,2.539L249.2,31.918l1.219-6.2-4.672-4.266,6.3-.711,2.64-5.789,2.64,5.789,6.3.711-4.672,4.266,1.219,6.2Z" transform="translate(-148.186)" fill="#f7fcfd"></path></g></svg>