<svg xmlns="http://www.w3.org/2000/svg" width="65" height="65.099" viewBox="0 0 65 65.099"><g id="noun-targeting-983824" transform="translate(-68.276 2.586)"><path id="&#x41A;&#x43E;&#x43D;&#x442;&#x443;&#x440;_29084" data-name="&#x41A;&#x43E;&#x43D;&#x442;&#x443;&#x440; 29084" d="M400.83,112h1.491v14.809H400.83Z" transform="translate(-294.191 -101.367)" fill="#f7fcfd"></path><path id="&#x41A;&#x43E;&#x43D;&#x442;&#x443;&#x440;_29085" data-name="&#x41A;&#x43E;&#x43D;&#x442;&#x443;&#x440; 29085" d="M400.83,433.36h1.491v14.809H400.83Z" transform="translate(-294.191 -385.655)" fill="#f7fcfd"></path><path id="&#x41A;&#x43E;&#x43D;&#x442;&#x443;&#x440;_29086" data-name="&#x41A;&#x43E;&#x43D;&#x442;&#x443;&#x440; 29086" d="M182,330.83h14.809v1.491H182Z" transform="translate(-100.605 -294.953)" fill="#f7fcfd"></path><path id="&#x41A;&#x43E;&#x43D;&#x442;&#x443;&#x440;_29087" data-name="&#x41A;&#x43E;&#x43D;&#x442;&#x443;&#x440; 29087" d="M503.36,330.83h14.809v1.491H503.36Z" transform="translate(-384.893 -294.953)" fill="#f7fcfd"></path><path id="&#x41A;&#x43E;&#x43D;&#x442;&#x443;&#x440;_29088" data-name="&#x41A;&#x43E;&#x43D;&#x442;&#x443;&#x440; 29088" d="M295.092,145.369l-.2-1.491a21.943,21.943,0,0,0-11.231,4.87l.894,1.193a21.322,21.322,0,0,1,10.535-4.572Z" transform="translate(-190.54 -129.568)" fill="#f7fcfd"></path><path id="&#x41A;&#x43E;&#x43D;&#x442;&#x443;&#x440;_29089" data-name="&#x41A;&#x43E;&#x43D;&#x442;&#x443;&#x440; 29089" d="M214.605,225.855a21.758,21.758,0,0,1,4.472-10.436l-1.193-.894a22.986,22.986,0,0,0-4.87,11.131Z" transform="translate(-128.042 -192.065)" fill="#f7fcfd"></path><path id="&#x41A;&#x43E;&#x43D;&#x442;&#x443;&#x440;_29090" data-name="&#x41A;&#x43E;&#x43D;&#x442;&#x443;&#x440; 29090" d="M448.969,164.118l1.491-.2a22.355,22.355,0,0,0-19.281-19.182l-.2,1.491a20.878,20.878,0,0,1,17.989,17.89Z" transform="translate(-320.862 -130.328)" fill="#f7fcfd"></path><path id="&#x41A;&#x43E;&#x43D;&#x442;&#x443;&#x440;_29091" data-name="&#x41A;&#x43E;&#x43D;&#x442;&#x443;&#x440; 29091" d="M215.365,360.12l-1.491.2a22.461,22.461,0,0,0,19.281,19.38l.2-1.491a20.883,20.883,0,0,1-17.989-18.088Z" transform="translate(-128.802 -320.864)" fill="#f7fcfd"></path><path id="&#x41A;&#x43E;&#x43D;&#x442;&#x443;&#x440;_29092" data-name="&#x41A;&#x43E;&#x43D;&#x442;&#x443;&#x440; 29092" d="M430.98,378.211l.2,1.491a22.36,22.36,0,0,0,19.281-19.38l-1.491-.2a20.882,20.882,0,0,1-17.989,18.088Z" transform="translate(-320.863 -320.867)" fill="#f7fcfd"></path><path id="&#x41A;&#x43E;&#x43D;&#x442;&#x443;&#x440;_29093" data-name="&#x41A;&#x43E;&#x43D;&#x442;&#x443;&#x440; 29093" d="M326.773,206.63a14.178,14.178,0,0,1,6.56-2.684l-.2-1.491a15.079,15.079,0,0,0-7.255,2.982Z" transform="translate(-227.887 -181.388)" fill="#f7fcfd"></path><path id="&#x41A;&#x43E;&#x43D;&#x442;&#x443;&#x440;_29094" data-name="&#x41A;&#x43E;&#x43D;&#x442;&#x443;&#x440; 29094" d="M273.945,264.091a13.683,13.683,0,0,1,2.584-6.46l-1.193-.895a14.593,14.593,0,0,0-2.882,7.156Z" transform="translate(-180.624 -229.406)" fill="#f7fcfd"></path><path id="&#x41A;&#x43E;&#x43D;&#x442;&#x443;&#x440;_29095" data-name="&#x41A;&#x43E;&#x43D;&#x442;&#x443;&#x440; 29095" d="M435.355,216.073l1.491-.2a15.606,15.606,0,0,0-13.417-13.417l-.2,1.491a14.028,14.028,0,0,1,12.125,12.125Z" transform="translate(-314.006 -181.389)" fill="#f7fcfd"></path><path id="&#x41A;&#x43E;&#x43D;&#x442;&#x443;&#x440;_29096" data-name="&#x41A;&#x43E;&#x43D;&#x442;&#x443;&#x440; 29096" d="M273.949,352.37l-1.491.2a15.609,15.609,0,0,0,13.417,13.517l.2-1.491a14.032,14.032,0,0,1-12.125-12.225Z" transform="translate(-180.628 -314.008)" fill="#f7fcfd"></path><path id="&#x41A;&#x43E;&#x43D;&#x442;&#x443;&#x440;_29097" data-name="&#x41A;&#x43E;&#x43D;&#x442;&#x443;&#x440; 29097" d="M436.844,352.566l-1.491-.2a14.233,14.233,0,0,1-12.125,12.225l.2,1.491a15.609,15.609,0,0,0,13.417-13.517Z" transform="translate(-314.005 -314.006)" fill="#f7fcfd"></path><path id="&#x41A;&#x43E;&#x43D;&#x442;&#x443;&#x440;_29098" data-name="&#x41A;&#x43E;&#x43D;&#x442;&#x443;&#x440; 29098" d="M106.837,37.07l1.093-1.093L85.966,14.111l1.193-6.063L76.525-2.586,75.133,4.372,68.276,5.763,78.91,16.4,84.973,15.2ZM79.307,14.808l-8.05-8.15,5.168-.994L77.419.5l8.15,8.15-.994,5.168Z" fill="#f7fcfd"></path><path id="&#x41A;&#x43E;&#x43D;&#x442;&#x443;&#x440;_29099" data-name="&#x41A;&#x43E;&#x43D;&#x442;&#x443;&#x440; 29099" d="M354.7,289.144a6.425,6.425,0,0,0-.4,1.988,5.963,5.963,0,1,0,5.963-5.963,4.452,4.452,0,0,0-1.988.4l.5,1.391a3.99,3.99,0,0,1,1.491-.3,4.472,4.472,0,1,1-4.472,4.473,3.987,3.987,0,0,1,.3-1.491Z" transform="translate(-253.033 -254.559)" fill="#f7fcfd"></path></g></svg>